# xmcd
#
# Track frame offsets:
#	150
#	15986
#	35913
#	56719
#
# Disc length: 953 seconds
#
# Revision: 1
# Processed by: cddbd v1.4PL0 Copyright (c) Steve Scherf et al.
# Submitted via: audiograbber 1.80.04
#
DISCID=2d03b704
DTITLE=Noora - I Wonder Why
DYEAR=1999
DGENRE=
TTITLE0=I Wonder Why
TTITLE1=Need You
TTITLE2=I Wonder Why - Estima Club Remix
TTITLE3=I Wonder Why - Acapella
EXTD=
EXTT0=
EXTT1=
EXTT2=
EXTT3=
PLAYORDER=
